HIERARCHY
ROOT root
{
	OFFSET 0.000000 0.000000 0.000000
	CHANNELS 6 Xposition Yposition Zposition Zrotation Yrotation Xrotation
	JOINT lhip
	{
		OFFSET 0.058581 -0.082280 -0.017664
		CHANNELS 3 Zrotation Yrotation Xrotation
		JOINT lknee
		{
			OFFSET 0.043451 -0.386469 0.008037
			CHANNELS 3 Zrotation Yrotation Xrotation
			JOINT lankle
			{
				OFFSET -0.014790 -0.426874 -0.037428
				CHANNELS 3 Zrotation Yrotation Xrotation
				JOINT ltoe
				{
					OFFSET 0.041054 -0.060286 0.122042
					CHANNELS 3 Zrotation Yrotation Xrotation
					End Site
					{
						OFFSET 0.000000 0.000000 0.000000
					}
				}
			}
		}
	}
	JOINT rhip
	{
		OFFSET -0.060310 -0.090513 -0.013543
		CHANNELS 3 Zrotation Yrotation Xrotation
		JOINT rknee
		{
			OFFSET -0.043257 -0.383688 -0.004843
			CHANNELS 3 Zrotation Yrotation Xrotation
			JOINT rankle
			{
				OFFSET 0.019056 -0.420046 -0.034562
				CHANNELS 3 Zrotation Yrotation Xrotation
				JOINT rtoe
				{
					OFFSET -0.034840 -0.062106 0.130323
					CHANNELS 3 Zrotation Yrotation Xrotation
					End Site
					{
						OFFSET 0.000000 0.000000 0.000000
					}
				}
			}
		}
	}
	JOINT lowerback
	{
		OFFSET 0.004439 0.124404 -0.038385
		CHANNELS 3 Zrotation Yrotation Xrotation
		JOINT upperback
		{
			OFFSET 0.004488 0.137956 0.026820
			CHANNELS 3 Zrotation Yrotation Xrotation
			JOINT chest
			{
				OFFSET -0.002265 0.056032 0.002855
				CHANNELS 3 Zrotation Yrotation Xrotation
				JOINT lowerneck
				{
					OFFSET -0.013390 0.211636 -0.033468
					CHANNELS 3 Zrotation Yrotation Xrotation
					JOINT upperneck
					{
						OFFSET 0.010113 0.088937 0.050410
						CHANNELS 3 Zrotation Yrotation Xrotation
						End Site
						{
							OFFSET 0.000000 0.000000 0.000000
						}
					}
				}
				JOINT lclavicle
				{
					OFFSET 0.071702 0.114000 -0.018898
					CHANNELS 3 Zrotation Yrotation Xrotation
					JOINT lshoulder
					{
						OFFSET 0.122921 0.045205 -0.019046
						CHANNELS 3 Zrotation Yrotation Xrotation
						JOINT lelbow
						{
							OFFSET 0.255332 -0.015649 -0.022946
							CHANNELS 3 Zrotation Yrotation Xrotation
							JOINT lwrist
							{
								OFFSET 0.265709 0.012698 -0.007375
								CHANNELS 3 Zrotation Yrotation Xrotation
								End Site
								{
									OFFSET 0.000000 0.000000 0.000000
								}
							}
						}
					}
				}
				JOINT rclavicle
				{
					OFFSET -0.082954 0.112472 -0.023707
					CHANNELS 3 Zrotation Yrotation Xrotation
					JOINT rshoulder
					{
						OFFSET -0.113228 0.046853 -0.008472
						CHANNELS 3 Zrotation Yrotation Xrotation
						JOINT relbow
						{
							OFFSET -0.260127 -0.014369 -0.031269
							CHANNELS 3 Zrotation Yrotation Xrotation
							JOINT rwrist
							{
								OFFSET -0.269108 0.006794 -0.006027
								CHANNELS 3 Zrotation Yrotation Xrotation
								End Site
								{
									OFFSET 0.000000 0.000000 0.000000
								}
							}
						}
					}
				}
			}
		}
	}
}
MOTION
Frames: 11
Frame Time: 0.033333
-0.298745 0.752272 1.015240 74.185060 -1.490074 86.240215 2.622057 2.881194 5.083933 -1.491899 -0.972370 -1.585211 0.242979 8.206871 -7.870853 0.000000 -0.000000 0.000000 -3.851843 -3.083750 1.349125 -1.366027 0.180579 1.571273 2.626486 -4.578535 -10.329762 0.000000 -0.000000 0.000000 -2.334582 3.629535 10.452025 0.820653 -5.603678 2.887160 -0.799725 0.557234 -2.500535 -3.327429 16.891672 -7.163037 -1.435464 -0.321503 5.037356 -4.983596 -25.963920 -7.315841 -14.649134 -31.086403 -11.431495 24.887596 -39.249094 -26.241805 -3.499532 -12.753362 -32.192683 16.835416 25.290248 -1.702036 61.409468 30.369294 27.203569 -78.898331 72.670846 -55.224658 1.455460 10.302039 -17.564921 
-0.299304 0.752545 1.014939 74.706047 -1.208774 86.151431 2.958931 2.898053 4.955300 -1.509207 -1.062431 -1.415232 0.168612 7.820508 -8.141993 0.000000 -0.000000 0.000000 -3.503814 -3.133376 1.394211 -1.460832 -0.181662 1.660818 2.554036 -4.717651 -10.576983 0.000000 -0.000000 0.000000 -2.159445 3.628766 10.315997 0.780800 -5.362109 2.980022 -0.863860 0.599063 -2.506331 -2.724823 16.143037 -6.864546 -1.226467 -0.979931 5.213887 -5.942457 -26.248403 -6.146770 -15.678566 -31.283003 -10.144553 25.588920 -41.135497 -25.296164 -2.295937 -13.194776 -31.260851 17.269704 26.225630 -1.154666 60.734171 31.549598 26.570983 -72.463535 71.368629 -48.956109 -0.360510 10.974595 -16.106645 
-0.300693 0.753219 1.015120 75.325626 -1.216067 86.245652 2.924398 2.712827 4.618830 -1.493489 -1.052010 -1.305314 0.211989 7.386459 -7.886890 0.000000 -0.000000 0.000000 -3.568393 -3.270880 1.265729 -1.460066 -0.607055 1.782789 2.615676 -4.669404 -10.455681 0.000000 -0.000000 0.000000 -2.050482 3.747854 10.510524 0.619977 -5.118933 2.864762 -1.101419 0.667157 -2.677407 -2.107712 15.360432 -6.875816 -1.063687 -1.891979 5.351674 -6.234459 -26.598886 -5.778577 -17.079628 -31.947405 -8.734877 25.262984 -42.358631 -22.167079 -3.322882 -14.236552 -30.951477 17.279299 27.003912 -1.078542 60.646245 32.588299 26.171998 -68.038788 69.792534 -43.896583 -0.738020 10.792758 -15.619732 
-0.302234 0.753291 1.015041 75.991626 -1.212797 86.060455 3.032952 2.861926 4.398514 -1.587189 -1.486794 -0.919905 0.064626 7.109059 -7.973428 0.000000 -0.000000 0.000000 -3.518481 -3.393429 1.399041 -1.617874 -0.589150 1.932164 2.682620 -4.817223 -10.571859 0.000000 -0.000000 0.000000 -2.120907 3.809915 10.690918 0.440136 -5.220721 3.150414 -1.280613 0.652654 -2.801412 -1.344081 14.750862 -6.808783 -0.648486 -2.595184 4.933678 -6.362135 -27.470685 -5.944792 -17.786363 -32.195568 -7.319945 23.575150 -43.232256 -19.568889 -0.964518 -13.286531 -26.593467 17.152805 28.451769 -1.250348 60.487030 34.827108 25.747768 -60.826179 67.102018 -37.917627 -2.274086 8.176806 -12.215862 
-0.303016 0.753448 1.015196 76.408514 -1.280626 86.006431 2.979162 2.756678 4.220153 -1.621350 -1.523797 -0.693181 -0.009227 6.935843 -8.036149 0.000000 -0.000000 0.000000 -3.645570 -3.604622 1.340345 -1.546804 -0.793008 2.141030 2.555423 -4.981985 -10.731983 0.000000 -0.000000 0.000000 -2.215963 3.814151 10.761642 0.322362 -5.301933 3.334912 -1.289667 0.673379 -2.792851 -1.261034 14.452197 -7.157466 -0.461918 -3.057291 4.780349 -6.241467 -27.995095 -5.989796 -18.562794 -32.914690 -6.993423 23.178210 -42.541274 -17.162527 -1.165982 -13.221143 -25.237412 16.941571 29.355583 -1.227091 59.821069 36.491480 24.741399 -57.217465 65.116559 -33.394207 -2.290252 8.785286 -9.674972 
-0.303668 0.753201 1.015263 76.664931 -1.154689 86.028727 3.167483 3.053912 4.015078 -1.595905 -2.033932 -0.495504 0.056001 6.907507 -7.931892 0.000000 -0.000000 0.000000 -3.409408 -3.631970 1.267703 -1.664209 -0.621773 2.225026 2.437223 -5.247031 -10.911495 0.000000 -0.000000 0.000000 -2.168818 3.803347 10.909463 0.192308 -5.323226 3.096179 -1.251283 0.674471 -2.715758 -1.182136 13.929366 -7.232546 -0.082814 -3.256333 4.613249 -6.403683 -29.314498 -5.753310 -18.155124 -33.206084 -7.074719 21.310234 -41.263630 -16.061171 2.231657 -12.374649 -24.526822 16.316049 30.866752 -1.300179 59.075355 37.493417 24.224556 -53.514375 62.956342 -30.206015 -6.116532 8.986514 -9.178067 
-0.303710 0.752997 1.015453 76.707228 -1.209748 86.072496 3.129101 3.008266 4.140424 -1.582370 -1.950271 -0.819079 0.111282 6.946152 -7.832483 0.000000 -0.000000 0.000000 -3.432158 -3.632101 1.272531 -1.674904 -0.477506 2.144972 2.533826 -5.313135 -10.875908 0.000000 -0.000000 0.000000 -2.512712 3.887480 10.888732 0.088451 -5.419827 3.153460 -1.232958 0.634076 -3.106079 -0.572537 13.388561 -6.902454 0.274120 -3.031248 4.751386 -6.037253 -30.187393 -5.829012 -18.557348 -34.064379 -6.921141 20.071856 -39.113073 -15.314476 1.895312 -12.256486 -24.417973 16.529355 31.987581 -1.244087 58.269450 38.659406 23.693778 -50.339546 60.023013 -27.505367 -4.548056 9.313404 -7.689158 
-0.302924 0.752671 1.015098 76.622654 -1.183395 86.009379 3.230290 3.153042 4.361755 -1.548156 -2.116706 -1.058101 -0.042160 6.957880 -7.944703 0.000000 -0.000000 0.000000 -3.378328 -3.749368 1.442625 -1.669561 -0.110237 2.115911 2.407002 -5.387051 -10.836047 0.000000 -0.000000 0.000000 -2.487515 3.900145 11.234385 0.029480 -5.664442 2.958858 -1.008204 0.560579 -3.095268 -0.905132 13.579897 -7.263466 0.235383 -3.253683 4.709529 -5.669362 -31.248992 -6.645240 -18.906271 -34.259957 -6.531372 19.033717 -37.196759 -13.987840 2.914419 -11.784235 -24.020115 15.370579 32.990429 -2.238330 58.409271 40.118305 23.581492 -45.721301 56.778653 -23.672286 -4.958986 8.699704 -7.727885 
-0.302151 0.752176 1.014594 76.215973 -1.194690 86.194431 3.279668 3.383000 4.298373 -1.577668 -2.087590 -1.038788 -0.010996 7.025656 -7.990572 0.000000 -0.000000 0.000000 -3.346442 -3.607480 1.211011 -1.715594 -0.091815 2.167103 2.532996 -5.110290 -10.816993 0.000000 -0.000000 0.000000 -2.506761 3.732809 10.946283 -0.066778 -5.611930 2.827837 -1.058755 0.582841 -2.919599 -0.885443 13.727844 -7.244196 0.058839 -3.205056 4.534832 -5.822346 -32.111799 -6.675144 -18.185487 -35.445539 -6.965044 18.015728 -34.178426 -13.011684 1.709798 -11.857930 -23.838135 14.960037 34.025943 -2.148312 57.958770 41.677700 23.072804 -42.507707 53.161045 -20.483022 -4.314732 8.967011 -7.844858 
-0.301692 0.751300 1.014578 75.551710 -1.031543 86.177722 3.550296 3.861047 4.373030 -1.550539 -1.769882 -0.892378 -0.203179 7.093565 -7.994515 0.000000 -0.000000 0.000000 -3.143387 -3.427184 1.271044 -1.535688 0.326589 1.929414 2.482161 -5.196347 -10.705021 0.000000 -0.000000 0.000000 -2.497106 3.514953 11.109600 -0.212393 -5.707525 2.824432 -0.800433 0.492156 -2.901645 -1.165820 13.712747 -7.600773 -0.002167 -2.274199 4.351184 -5.267690 -33.354460 -6.911150 -17.649254 -36.567809 -7.749651 17.154461 -29.867429 -14.119474 3.878799 -10.987433 -21.285732 14.351495 35.620270 -2.342786 56.010057 43.779716 21.750577 -36.234152 48.626049 -16.873502 -5.408924 8.940623 -8.614132 
-0.301515 0.751027 1.014132 74.840451 -0.866084 86.084693 3.731322 3.960450 4.385088 -1.540353 -1.812745 -0.614630 -0.366248 7.720976 -8.178386 0.000000 -0.000000 0.000000 -2.933458 -3.442535 1.287283 -1.441229 1.115297 1.856420 2.390990 -5.393329 -10.473399 0.000000 -0.000000 0.000000 -2.252176 3.935683 11.180126 -0.251469 -5.579960 3.852987 -0.441109 0.111092 -3.215950 -1.869935 13.779133 -8.401859 0.048349 -1.565675 3.763490 -4.998262 -35.577545 -7.147374 -16.426944 -36.582981 -8.575807 16.558899 -26.362825 -15.515206 7.244357 -9.958366 -19.655242 12.555287 37.442312 -3.038095 53.587378 45.119423 19.859924 -32.548348 44.718475 -14.952339 -6.896279 9.055966 -9.320470 
